<svg xmlns="http://www.w3.org/2000/svg" viewBox="0 0 720 260" width="720" height="260" role="img" aria-label="Subscribers over time">
<line x1="46" y1="230.0" x2="642" y2="230.0" stroke="#30363d" stroke-width="1" opacity="0.9"/>
<text x="38" y="233.5" text-anchor="end" font-family="-apple-system,BlinkMacSystemFont,'Segoe UI',Helvetica,Arial,sans-serif" font-size="11" fill="#8b949e">0</text>
<line x1="46" y1="158.7" x2="642" y2="158.7" stroke="#30363d" stroke-width="1" opacity="0.5"/>
<text x="38" y="162.2" text-anchor="end" font-family="-apple-system,BlinkMacSystemFont,'Segoe UI',Helvetica,Arial,sans-serif" font-size="11" fill="#8b949e">20k</text>
<line x1="46" y1="87.3" x2="642" y2="87.3" stroke="#30363d" stroke-width="1" opacity="0.5"/>
<text x="38" y="90.8" text-anchor="end" font-family="-apple-system,BlinkMacSystemFont,'Segoe UI',Helvetica,Arial,sans-serif" font-size="11" fill="#8b949e">40k</text>
<line x1="46" y1="16.0" x2="642" y2="16.0" stroke="#30363d" stroke-width="1" opacity="0.5"/>
<text x="38" y="19.5" text-anchor="end" font-family="-apple-system,BlinkMacSystemFont,'Segoe UI',Helvetica,Arial,sans-serif" font-size="11" fill="#8b949e">60k</text>
<text x="46.0" y="252" text-anchor="middle" font-family="-apple-system,BlinkMacSystemFont,'Segoe UI',Helvetica,Arial,sans-serif" font-size="11" fill="#8b949e">11.07</text>
<text x="195.0" y="252" text-anchor="middle" font-family="-apple-system,BlinkMacSystemFont,'Segoe UI',Helvetica,Arial,sans-serif" font-size="11" fill="#8b949e">19.07</text>
<text x="344.0" y="252" text-anchor="middle" font-family="-apple-system,BlinkMacSystemFont,'Segoe UI',Helvetica,Arial,sans-serif" font-size="11" fill="#8b949e">27.07</text>
<text x="493.0" y="252" text-anchor="middle" font-family="-apple-system,BlinkMacSystemFont,'Segoe UI',Helvetica,Arial,sans-serif" font-size="11" fill="#8b949e">05.08</text>
<text x="642.0" y="252" text-anchor="middle" font-family="-apple-system,BlinkMacSystemFont,'Segoe UI',Helvetica,Arial,sans-serif" font-size="11" fill="#8b949e">13.08</text>
<polyline points="46.0,230.0 61.8,226.4 98.5,220.0 135.2,205.1 153.5,194.3 169.2,194.3 180.3,187.8 187.7,182.0 188.2,181.9 188.3,181.9 191.7,180.2 196.0,177.8 202.5,176.2 206.7,175.3 210.5,173.7 214.7,171.7 220.7,170.3 224.5,169.5 228.8,167.9 232.9,166.1 239.0,164.6 242.8,164.0 247.1,162.5 251.3,160.9 257.3,159.6 261.1,158.8 265.6,157.0 269.6,155.2 275.7,153.8 279.5,152.9 283.7,151.2 287.9,149.2 293.9,147.5 297.6,146.4 301.9,144.3 306.1,142.2 312.5,140.4 316.1,139.2 320.2,137.1 324.5,134.6 330.9,132.9 335.6,131.9 339.5,130.2 343.1,128.6 349.0,127.1 353.1,126.4 357.4,124.8 361.4,123.2 367.4,121.8 371.5,120.9 375.6,119.3 379.6,117.8 385.6,116.3 389.8,115.5 394.0,114.0 398.1,112.6 404.2,111.1 408.3,110.2 412.4,108.6 416.4,107.0 422.5,105.4 426.1,104.4 430.2,102.6 434.5,100.6 440.9,98.7 444.5,97.6 448.6,95.7 452.9,93.4 459.3,91.8 464.0,90.9 468.0,89.2 471.5,88.1 477.4,86.8 481.6,86.2 485.8,84.8 489.9,83.5 495.7,82.4 499.9,81.7 504.1,80.5 508.2,79.2 514.1,77.8 518.3,77.0 522.4,75.5 529.8,72.9 535.5,71.7 540.1,70.1 544.4,68.2 549.8,66.6 553.5,65.6 558.1,63.6 562.5,61.8 568.2,60.0 572.0,59.1 576.5,57.1 580.9,55.0 586.6,53.1 590.9,52.4 595.2,51.2 599.4,49.7 604.9,48.5 608.9,48.4 613.5,48.5 617.9,48.3 623.5,48.3 627.4,48.3 631.9,48.3 636.2,48.1 642.0,48.1" fill="none" stroke="#d97706" stroke-width="2" stroke-linejoin="round" stroke-linecap="round"/>
<circle cx="642.0" cy="48.1" r="3.5" fill="#d97706"/>
<text x="651.0" y="52.1" font-family="-apple-system,BlinkMacSystemFont,'Segoe UI',Helvetica,Arial,sans-serif" font-size="12" font-weight="600" fill="#e6edf3">51 009</text>
</svg>