<svg xmlns="http://www.w3.org/2000/svg" viewBox="0 0 720 260" width="720" height="260" role="img" aria-label="Subscribers over time">
<line x1="46" y1="230.0" x2="642" y2="230.0" stroke="#30363d" stroke-width="1" opacity="0.9"/>
<text x="38" y="233.5" text-anchor="end" font-family="-apple-system,BlinkMacSystemFont,'Segoe UI',Helvetica,Arial,sans-serif" font-size="11" fill="#8b949e">0</text>
<line x1="46" y1="176.5" x2="642" y2="176.5" stroke="#30363d" stroke-width="1" opacity="0.5"/>
<text x="38" y="180.0" text-anchor="end" font-family="-apple-system,BlinkMacSystemFont,'Segoe UI',Helvetica,Arial,sans-serif" font-size="11" fill="#8b949e">10k</text>
<line x1="46" y1="123.0" x2="642" y2="123.0" stroke="#30363d" stroke-width="1" opacity="0.5"/>
<text x="38" y="126.5" text-anchor="end" font-family="-apple-system,BlinkMacSystemFont,'Segoe UI',Helvetica,Arial,sans-serif" font-size="11" fill="#8b949e">20k</text>
<line x1="46" y1="69.5" x2="642" y2="69.5" stroke="#30363d" stroke-width="1" opacity="0.5"/>
<text x="38" y="73.0" text-anchor="end" font-family="-apple-system,BlinkMacSystemFont,'Segoe UI',Helvetica,Arial,sans-serif" font-size="11" fill="#8b949e">30k</text>
<line x1="46" y1="16.0" x2="642" y2="16.0" stroke="#30363d" stroke-width="1" opacity="0.5"/>
<text x="38" y="19.5" text-anchor="end" font-family="-apple-system,BlinkMacSystemFont,'Segoe UI',Helvetica,Arial,sans-serif" font-size="11" fill="#8b949e">40k</text>
<text x="46.0" y="252" text-anchor="middle" font-family="-apple-system,BlinkMacSystemFont,'Segoe UI',Helvetica,Arial,sans-serif" font-size="11" fill="#8b949e">11.07</text>
<text x="195.0" y="252" text-anchor="middle" font-family="-apple-system,BlinkMacSystemFont,'Segoe UI',Helvetica,Arial,sans-serif" font-size="11" fill="#8b949e">17.07</text>
<text x="344.0" y="252" text-anchor="middle" font-family="-apple-system,BlinkMacSystemFont,'Segoe UI',Helvetica,Arial,sans-serif" font-size="11" fill="#8b949e">22.07</text>
<text x="493.0" y="252" text-anchor="middle" font-family="-apple-system,BlinkMacSystemFont,'Segoe UI',Helvetica,Arial,sans-serif" font-size="11" fill="#8b949e">27.07</text>
<text x="642.0" y="252" text-anchor="middle" font-family="-apple-system,BlinkMacSystemFont,'Segoe UI',Helvetica,Arial,sans-serif" font-size="11" fill="#8b949e">02.08</text>
<polyline points="46.0,230.0 69.8,224.6 125.2,215.0 180.6,192.7 208.3,176.5 231.9,176.4 248.6,166.8 259.9,158.1 260.6,157.9 260.8,157.8 265.9,155.3 272.4,151.7 282.3,149.3 288.6,148.0 294.3,145.5 300.5,142.6 309.6,140.4 315.3,139.2 321.8,136.8 328.2,134.1 337.3,131.9 343.0,131.0 349.5,128.7 355.8,126.4 365.0,124.4 370.7,123.3 377.4,120.5 383.4,117.8 392.6,115.6 398.3,114.4 404.7,111.8 411.1,108.8 420.2,106.3 425.7,104.6 432.2,101.5 438.6,98.2 448.2,95.6 453.6,93.8 459.8,90.6 466.3,86.9 476.0,84.3 483.1,82.9 489.0,80.3 494.4,78.0 503.2,75.7 509.5,74.6 516.0,72.3 522.0,69.8 531.0,67.8 537.3,66.3 543.5,64.0 549.5,61.8 558.5,59.5 564.9,58.3 571.2,56.0 577.4,53.9 586.6,51.7 592.8,50.4 599.0,47.9 605.1,45.5 614.3,43.1 619.7,41.6 625.9,38.9 632.4,35.8 642.0,33.1" fill="none" stroke="#d97706" stroke-width="2" stroke-linejoin="round" stroke-linecap="round"/>
<circle cx="642.0" cy="33.1" r="3.5" fill="#d97706"/>
<text x="651.0" y="37.1" font-family="-apple-system,BlinkMacSystemFont,'Segoe UI',Helvetica,Arial,sans-serif" font-size="12" font-weight="600" fill="#e6edf3">36 805</text>
</svg>