<svg xmlns="http://www.w3.org/2000/svg" viewBox="0 0 720 260" width="720" height="260" role="img" aria-label="Subscribers over time">
<line x1="46" y1="230.0" x2="642" y2="230.0" stroke="#d0d7de" stroke-width="1" opacity="0.9"/>
<text x="38" y="233.5" text-anchor="end" font-family="-apple-system,BlinkMacSystemFont,'Segoe UI',Helvetica,Arial,sans-serif" font-size="11" fill="#57606a">0</text>
<line x1="46" y1="176.5" x2="642" y2="176.5" stroke="#d0d7de" stroke-width="1" opacity="0.5"/>
<text x="38" y="180.0" text-anchor="end" font-family="-apple-system,BlinkMacSystemFont,'Segoe UI',Helvetica,Arial,sans-serif" font-size="11" fill="#57606a">10k</text>
<line x1="46" y1="123.0" x2="642" y2="123.0" stroke="#d0d7de" stroke-width="1" opacity="0.5"/>
<text x="38" y="126.5" text-anchor="end" font-family="-apple-system,BlinkMacSystemFont,'Segoe UI',Helvetica,Arial,sans-serif" font-size="11" fill="#57606a">20k</text>
<line x1="46" y1="69.5" x2="642" y2="69.5" stroke="#d0d7de" stroke-width="1" opacity="0.5"/>
<text x="38" y="73.0" text-anchor="end" font-family="-apple-system,BlinkMacSystemFont,'Segoe UI',Helvetica,Arial,sans-serif" font-size="11" fill="#57606a">30k</text>
<line x1="46" y1="16.0" x2="642" y2="16.0" stroke="#d0d7de" stroke-width="1" opacity="0.5"/>
<text x="38" y="19.5" text-anchor="end" font-family="-apple-system,BlinkMacSystemFont,'Segoe UI',Helvetica,Arial,sans-serif" font-size="11" fill="#57606a">40k</text>
<text x="46.0" y="252" text-anchor="middle" font-family="-apple-system,BlinkMacSystemFont,'Segoe UI',Helvetica,Arial,sans-serif" font-size="11" fill="#57606a">11.07</text>
<text x="195.0" y="252" text-anchor="middle" font-family="-apple-system,BlinkMacSystemFont,'Segoe UI',Helvetica,Arial,sans-serif" font-size="11" fill="#57606a">16.07</text>
<text x="344.0" y="252" text-anchor="middle" font-family="-apple-system,BlinkMacSystemFont,'Segoe UI',Helvetica,Arial,sans-serif" font-size="11" fill="#57606a">21.07</text>
<text x="493.0" y="252" text-anchor="middle" font-family="-apple-system,BlinkMacSystemFont,'Segoe UI',Helvetica,Arial,sans-serif" font-size="11" fill="#57606a">26.07</text>
<text x="642.0" y="252" text-anchor="middle" font-family="-apple-system,BlinkMacSystemFont,'Segoe UI',Helvetica,Arial,sans-serif" font-size="11" fill="#57606a">30.07</text>
<polyline points="46.0,230.0 72.7,224.6 134.8,215.0 197.0,192.7 228.0,176.5 254.5,176.4 273.3,166.8 285.9,158.1 286.8,157.9 287.0,157.8 292.6,155.3 299.9,151.7 311.0,149.3 318.1,148.0 324.5,145.5 331.5,142.6 341.7,140.4 348.1,139.2 355.4,136.8 362.5,134.1 372.7,131.9 379.1,131.0 386.5,128.7 393.5,126.4 403.8,124.4 410.2,123.3 417.7,120.5 424.5,117.8 434.8,115.6 441.2,114.4 448.3,111.8 455.5,108.8 465.7,106.3 471.9,104.6 479.2,101.5 486.3,98.2 497.2,95.6 503.2,93.8 510.1,90.6 517.4,86.9 528.4,84.3 536.2,82.9 542.8,80.3 548.9,78.0 558.9,75.7 565.9,74.6 573.1,72.3 579.9,69.8 590.0,67.8 597.1,66.3 604.0,64.0 610.8,61.8 620.8,59.5 628.0,58.3 635.1,56.0 642.0,53.9" fill="none" stroke="#d97706" stroke-width="2" stroke-linejoin="round" stroke-linecap="round"/>
<circle cx="642.0" cy="53.9" r="3.5" fill="#d97706"/>
<text x="651.0" y="57.9" font-family="-apple-system,BlinkMacSystemFont,'Segoe UI',Helvetica,Arial,sans-serif" font-size="12" font-weight="600" fill="#1f2328">32 923</text>
</svg>