<svg xmlns="http://www.w3.org/2000/svg" viewBox="0 0 720 260" width="720" height="260" role="img" aria-label="Subscribers over time">
<line x1="46" y1="230.0" x2="642" y2="230.0" stroke="#d0d7de" stroke-width="1" opacity="0.9"/>
<text x="38" y="233.5" text-anchor="end" font-family="-apple-system,BlinkMacSystemFont,'Segoe UI',Helvetica,Arial,sans-serif" font-size="11" fill="#57606a">0</text>
<line x1="46" y1="176.5" x2="642" y2="176.5" stroke="#d0d7de" stroke-width="1" opacity="0.5"/>
<text x="38" y="180.0" text-anchor="end" font-family="-apple-system,BlinkMacSystemFont,'Segoe UI',Helvetica,Arial,sans-serif" font-size="11" fill="#57606a">5k</text>
<line x1="46" y1="123.0" x2="642" y2="123.0" stroke="#d0d7de" stroke-width="1" opacity="0.5"/>
<text x="38" y="126.5" text-anchor="end" font-family="-apple-system,BlinkMacSystemFont,'Segoe UI',Helvetica,Arial,sans-serif" font-size="11" fill="#57606a">10k</text>
<line x1="46" y1="69.5" x2="642" y2="69.5" stroke="#d0d7de" stroke-width="1" opacity="0.5"/>
<text x="38" y="73.0" text-anchor="end" font-family="-apple-system,BlinkMacSystemFont,'Segoe UI',Helvetica,Arial,sans-serif" font-size="11" fill="#57606a">15k</text>
<line x1="46" y1="16.0" x2="642" y2="16.0" stroke="#d0d7de" stroke-width="1" opacity="0.5"/>
<text x="38" y="19.5" text-anchor="end" font-family="-apple-system,BlinkMacSystemFont,'Segoe UI',Helvetica,Arial,sans-serif" font-size="11" fill="#57606a">20k</text>
<text x="46.0" y="252" text-anchor="middle" font-family="-apple-system,BlinkMacSystemFont,'Segoe UI',Helvetica,Arial,sans-serif" font-size="11" fill="#57606a">11.07</text>
<text x="195.0" y="252" text-anchor="middle" font-family="-apple-system,BlinkMacSystemFont,'Segoe UI',Helvetica,Arial,sans-serif" font-size="11" fill="#57606a">14.07</text>
<text x="344.0" y="252" text-anchor="middle" font-family="-apple-system,BlinkMacSystemFont,'Segoe UI',Helvetica,Arial,sans-serif" font-size="11" fill="#57606a">16.07</text>
<text x="493.0" y="252" text-anchor="middle" font-family="-apple-system,BlinkMacSystemFont,'Segoe UI',Helvetica,Arial,sans-serif" font-size="11" fill="#57606a">19.07</text>
<text x="642.0" y="252" text-anchor="middle" font-family="-apple-system,BlinkMacSystemFont,'Segoe UI',Helvetica,Arial,sans-serif" font-size="11" fill="#57606a">21.07</text>
<polyline points="46.0,230.0 96.3,219.2 213.3,200.0 330.3,155.3 388.8,123.0 438.7,122.9 474.1,103.5 497.8,86.1 499.4,85.8 499.8,85.7 510.5,80.7 524.2,73.4 545.1,68.7 558.4,65.9 570.5,61.1 583.7,55.2 602.8,50.8 614.9,48.4 628.7,43.7 642.0,38.2" fill="none" stroke="#d97706" stroke-width="2" stroke-linejoin="round" stroke-linecap="round"/>
<circle cx="642.0" cy="38.2" r="3.5" fill="#d97706"/>
<text x="651.0" y="42.2" font-family="-apple-system,BlinkMacSystemFont,'Segoe UI',Helvetica,Arial,sans-serif" font-size="12" font-weight="600" fill="#1f2328">17 921</text>
</svg>