<svg xmlns="http://www.w3.org/2000/svg" viewBox="0 0 720 260" width="720" height="260" role="img" aria-label="Subscribers over time">
<line x1="46" y1="230.0" x2="642" y2="230.0" stroke="#d0d7de" stroke-width="1" opacity="0.9"/>
<text x="38" y="233.5" text-anchor="end" font-family="-apple-system,BlinkMacSystemFont,'Segoe UI',Helvetica,Arial,sans-serif" font-size="11" fill="#57606a">0</text>
<line x1="46" y1="158.7" x2="642" y2="158.7" stroke="#d0d7de" stroke-width="1" opacity="0.5"/>
<text x="38" y="162.2" text-anchor="end" font-family="-apple-system,BlinkMacSystemFont,'Segoe UI',Helvetica,Arial,sans-serif" font-size="11" fill="#57606a">20k</text>
<line x1="46" y1="87.3" x2="642" y2="87.3" stroke="#d0d7de" stroke-width="1" opacity="0.5"/>
<text x="38" y="90.8" text-anchor="end" font-family="-apple-system,BlinkMacSystemFont,'Segoe UI',Helvetica,Arial,sans-serif" font-size="11" fill="#57606a">40k</text>
<line x1="46" y1="16.0" x2="642" y2="16.0" stroke="#d0d7de" stroke-width="1" opacity="0.5"/>
<text x="38" y="19.5" text-anchor="end" font-family="-apple-system,BlinkMacSystemFont,'Segoe UI',Helvetica,Arial,sans-serif" font-size="11" fill="#57606a">60k</text>
<text x="46.0" y="252" text-anchor="middle" font-family="-apple-system,BlinkMacSystemFont,'Segoe UI',Helvetica,Arial,sans-serif" font-size="11" fill="#57606a">11.07</text>
<text x="195.0" y="252" text-anchor="middle" font-family="-apple-system,BlinkMacSystemFont,'Segoe UI',Helvetica,Arial,sans-serif" font-size="11" fill="#57606a">19.07</text>
<text x="344.0" y="252" text-anchor="middle" font-family="-apple-system,BlinkMacSystemFont,'Segoe UI',Helvetica,Arial,sans-serif" font-size="11" fill="#57606a">28.07</text>
<text x="493.0" y="252" text-anchor="middle" font-family="-apple-system,BlinkMacSystemFont,'Segoe UI',Helvetica,Arial,sans-serif" font-size="11" fill="#57606a">05.08</text>
<text x="642.0" y="252" text-anchor="middle" font-family="-apple-system,BlinkMacSystemFont,'Segoe UI',Helvetica,Arial,sans-serif" font-size="11" fill="#57606a">13.08</text>
<polyline points="46.0,230.0 61.6,226.4 97.8,220.0 133.9,205.1 152.0,194.3 167.5,194.3 178.4,187.8 185.8,182.0 186.3,181.9 186.4,181.9 189.7,180.2 194.0,177.8 200.4,176.2 204.5,175.3 208.3,173.7 212.3,171.7 218.3,170.3 222.0,169.5 226.3,167.9 230.4,166.1 236.4,164.6 240.1,164.0 244.4,162.5 248.5,160.9 254.4,159.6 258.2,158.8 262.6,157.0 266.5,155.2 272.5,153.8 276.3,152.9 280.4,151.2 284.6,149.2 290.5,147.5 294.1,146.4 298.4,144.3 302.5,142.2 308.9,140.4 312.4,139.2 316.4,137.1 320.6,134.6 327.0,132.9 331.6,131.9 335.5,130.2 339.0,128.6 344.8,127.1 348.9,126.4 353.1,124.8 357.1,123.2 363.0,121.8 367.1,120.9 371.1,119.3 375.1,117.8 380.9,116.3 385.1,115.5 389.2,114.0 393.2,112.6 399.3,111.1 403.3,110.2 407.4,108.6 411.3,107.0 417.4,105.4 420.9,104.4 425.0,102.6 429.2,100.6 435.5,98.7 439.0,97.6 443.1,95.7 447.3,93.4 453.6,91.8 458.3,90.9 462.2,89.2 465.7,88.1 471.5,86.8 475.6,86.2 479.8,84.8 483.8,83.5 489.5,82.4 493.7,81.7 497.8,80.5 501.8,79.2 507.7,77.8 511.8,77.0 515.9,75.5 523.2,72.9 528.8,71.7 533.3,70.1 537.5,68.2 542.9,66.6 546.6,65.6 551.1,63.6 555.4,61.8 561.1,60.0 564.8,59.1 569.2,57.1 573.6,55.0 579.2,53.1 583.4,52.4 587.7,51.2 591.9,49.7 597.3,48.5 601.1,48.4 605.7,48.5 610.0,48.3 615.6,48.3 619.4,48.3 623.9,48.3 628.2,48.1 633.8,48.1 637.5,48.0 642.0,47.9" fill="none" stroke="#d97706" stroke-width="2" stroke-linejoin="round" stroke-linecap="round"/>
<circle cx="642.0" cy="47.9" r="3.5" fill="#d97706"/>
<text x="651.0" y="51.9" font-family="-apple-system,BlinkMacSystemFont,'Segoe UI',Helvetica,Arial,sans-serif" font-size="12" font-weight="600" fill="#1f2328">51 059</text>
</svg>