<svg xmlns="http://www.w3.org/2000/svg" viewBox="0 0 720 260" width="720" height="260" role="img" aria-label="Subscribers over time">
<line x1="46" y1="230.0" x2="642" y2="230.0" stroke="#30363d" stroke-width="1" opacity="0.9"/>
<text x="38" y="233.5" text-anchor="end" font-family="-apple-system,BlinkMacSystemFont,'Segoe UI',Helvetica,Arial,sans-serif" font-size="11" fill="#8b949e">0</text>
<line x1="46" y1="187.2" x2="642" y2="187.2" stroke="#30363d" stroke-width="1" opacity="0.5"/>
<text x="38" y="190.7" text-anchor="end" font-family="-apple-system,BlinkMacSystemFont,'Segoe UI',Helvetica,Arial,sans-serif" font-size="11" fill="#8b949e">10k</text>
<line x1="46" y1="144.4" x2="642" y2="144.4" stroke="#30363d" stroke-width="1" opacity="0.5"/>
<text x="38" y="147.9" text-anchor="end" font-family="-apple-system,BlinkMacSystemFont,'Segoe UI',Helvetica,Arial,sans-serif" font-size="11" fill="#8b949e">20k</text>
<line x1="46" y1="101.6" x2="642" y2="101.6" stroke="#30363d" stroke-width="1" opacity="0.5"/>
<text x="38" y="105.1" text-anchor="end" font-family="-apple-system,BlinkMacSystemFont,'Segoe UI',Helvetica,Arial,sans-serif" font-size="11" fill="#8b949e">30k</text>
<line x1="46" y1="58.8" x2="642" y2="58.8" stroke="#30363d" stroke-width="1" opacity="0.5"/>
<text x="38" y="62.3" text-anchor="end" font-family="-apple-system,BlinkMacSystemFont,'Segoe UI',Helvetica,Arial,sans-serif" font-size="11" fill="#8b949e">40k</text>
<line x1="46" y1="16.0" x2="642" y2="16.0" stroke="#30363d" stroke-width="1" opacity="0.5"/>
<text x="38" y="19.5" text-anchor="end" font-family="-apple-system,BlinkMacSystemFont,'Segoe UI',Helvetica,Arial,sans-serif" font-size="11" fill="#8b949e">50k</text>
<text x="46.0" y="252" text-anchor="middle" font-family="-apple-system,BlinkMacSystemFont,'Segoe UI',Helvetica,Arial,sans-serif" font-size="11" fill="#8b949e">11.07</text>
<text x="195.0" y="252" text-anchor="middle" font-family="-apple-system,BlinkMacSystemFont,'Segoe UI',Helvetica,Arial,sans-serif" font-size="11" fill="#8b949e">17.07</text>
<text x="344.0" y="252" text-anchor="middle" font-family="-apple-system,BlinkMacSystemFont,'Segoe UI',Helvetica,Arial,sans-serif" font-size="11" fill="#8b949e">22.07</text>
<text x="493.0" y="252" text-anchor="middle" font-family="-apple-system,BlinkMacSystemFont,'Segoe UI',Helvetica,Arial,sans-serif" font-size="11" fill="#8b949e">28.07</text>
<text x="642.0" y="252" text-anchor="middle" font-family="-apple-system,BlinkMacSystemFont,'Segoe UI',Helvetica,Arial,sans-serif" font-size="11" fill="#8b949e">02.08</text>
<polyline points="46.0,230.0 69.1,225.7 122.9,218.0 176.6,200.1 203.5,187.2 226.4,187.2 242.7,179.4 253.6,172.5 254.3,172.3 254.5,172.3 259.4,170.3 265.7,167.4 275.3,165.5 281.4,164.4 287.0,162.4 293.0,160.1 301.8,158.3 307.4,157.4 313.7,155.5 319.8,153.3 328.7,151.6 334.3,150.8 340.6,149.0 346.7,147.1 355.6,145.5 361.1,144.6 367.6,142.4 373.5,140.2 382.4,138.5 388.0,137.5 394.1,135.4 400.4,133.1 409.2,131.0 414.5,129.7 420.8,127.2 427.0,124.6 436.4,122.5 441.6,121.1 447.6,118.5 453.9,115.5 463.4,113.5 470.2,112.3 475.9,110.3 481.1,108.4 489.8,106.5 495.9,105.7 502.1,103.8 508.0,101.8 516.7,100.2 522.9,99.1 528.8,97.2 534.7,95.4 543.4,93.6 549.6,92.7 555.8,90.8 561.7,89.1 570.6,87.4 576.7,86.3 582.7,84.3 588.6,82.4 597.5,80.5 602.8,79.3 608.8,77.1 615.1,74.7 624.4,72.5 629.7,71.1 635.7,68.8 642.0,66.1" fill="none" stroke="#d97706" stroke-width="2" stroke-linejoin="round" stroke-linecap="round"/>
<circle cx="642.0" cy="66.1" r="3.5" fill="#d97706"/>
<text x="651.0" y="70.1" font-family="-apple-system,BlinkMacSystemFont,'Segoe UI',Helvetica,Arial,sans-serif" font-size="12" font-weight="600" fill="#e6edf3">38 293</text>
</svg>