<svg xmlns="http://www.w3.org/2000/svg" viewBox="0 0 720 260" width="720" height="260" role="img" aria-label="Subscribers over time">
<line x1="46" y1="230.0" x2="642" y2="230.0" stroke="#30363d" stroke-width="1" opacity="0.9"/>
<text x="38" y="233.5" text-anchor="end" font-family="-apple-system,BlinkMacSystemFont,'Segoe UI',Helvetica,Arial,sans-serif" font-size="11" fill="#8b949e">0</text>
<line x1="46" y1="176.5" x2="642" y2="176.5" stroke="#30363d" stroke-width="1" opacity="0.5"/>
<text x="38" y="180.0" text-anchor="end" font-family="-apple-system,BlinkMacSystemFont,'Segoe UI',Helvetica,Arial,sans-serif" font-size="11" fill="#8b949e">5k</text>
<line x1="46" y1="123.0" x2="642" y2="123.0" stroke="#30363d" stroke-width="1" opacity="0.5"/>
<text x="38" y="126.5" text-anchor="end" font-family="-apple-system,BlinkMacSystemFont,'Segoe UI',Helvetica,Arial,sans-serif" font-size="11" fill="#8b949e">10k</text>
<line x1="46" y1="69.5" x2="642" y2="69.5" stroke="#30363d" stroke-width="1" opacity="0.5"/>
<text x="38" y="73.0" text-anchor="end" font-family="-apple-system,BlinkMacSystemFont,'Segoe UI',Helvetica,Arial,sans-serif" font-size="11" fill="#8b949e">15k</text>
<line x1="46" y1="16.0" x2="642" y2="16.0" stroke="#30363d" stroke-width="1" opacity="0.5"/>
<text x="38" y="19.5" text-anchor="end" font-family="-apple-system,BlinkMacSystemFont,'Segoe UI',Helvetica,Arial,sans-serif" font-size="11" fill="#8b949e">20k</text>
<text x="46.0" y="252" text-anchor="middle" font-family="-apple-system,BlinkMacSystemFont,'Segoe UI',Helvetica,Arial,sans-serif" font-size="11" fill="#8b949e">11.07</text>
<text x="195.0" y="252" text-anchor="middle" font-family="-apple-system,BlinkMacSystemFont,'Segoe UI',Helvetica,Arial,sans-serif" font-size="11" fill="#8b949e">14.07</text>
<text x="344.0" y="252" text-anchor="middle" font-family="-apple-system,BlinkMacSystemFont,'Segoe UI',Helvetica,Arial,sans-serif" font-size="11" fill="#8b949e">16.07</text>
<text x="493.0" y="252" text-anchor="middle" font-family="-apple-system,BlinkMacSystemFont,'Segoe UI',Helvetica,Arial,sans-serif" font-size="11" fill="#8b949e">18.07</text>
<text x="642.0" y="252" text-anchor="middle" font-family="-apple-system,BlinkMacSystemFont,'Segoe UI',Helvetica,Arial,sans-serif" font-size="11" fill="#8b949e">21.07</text>
<polyline points="46.0,230.0 98.7,219.2 221.3,200.0 343.8,155.3 405.1,123.0 457.4,122.9 494.4,103.5 519.3,86.1 521.0,85.8 521.4,85.7 532.6,80.7 547.0,73.4 568.8,68.7 582.8,65.9 595.5,61.1 609.3,55.2 629.3,50.8 642.0,48.4" fill="none" stroke="#d97706" stroke-width="2" stroke-linejoin="round" stroke-linecap="round"/>
<circle cx="642.0" cy="48.4" r="3.5" fill="#d97706"/>
<text x="651.0" y="52.4" font-family="-apple-system,BlinkMacSystemFont,'Segoe UI',Helvetica,Arial,sans-serif" font-size="12" font-weight="600" fill="#e6edf3">16 969</text>
</svg>