<svg xmlns="http://www.w3.org/2000/svg" viewBox="0 0 720 260" width="720" height="260" role="img" aria-label="Subscribers over time">
<line x1="46" y1="230.0" x2="642" y2="230.0" stroke="#30363d" stroke-width="1" opacity="0.9"/>
<text x="38" y="233.5" text-anchor="end" font-family="-apple-system,BlinkMacSystemFont,'Segoe UI',Helvetica,Arial,sans-serif" font-size="11" fill="#8b949e">0</text>
<line x1="46" y1="158.7" x2="642" y2="158.7" stroke="#30363d" stroke-width="1" opacity="0.5"/>
<text x="38" y="162.2" text-anchor="end" font-family="-apple-system,BlinkMacSystemFont,'Segoe UI',Helvetica,Arial,sans-serif" font-size="11" fill="#8b949e">20k</text>
<line x1="46" y1="87.3" x2="642" y2="87.3" stroke="#30363d" stroke-width="1" opacity="0.5"/>
<text x="38" y="90.8" text-anchor="end" font-family="-apple-system,BlinkMacSystemFont,'Segoe UI',Helvetica,Arial,sans-serif" font-size="11" fill="#8b949e">40k</text>
<line x1="46" y1="16.0" x2="642" y2="16.0" stroke="#30363d" stroke-width="1" opacity="0.5"/>
<text x="38" y="19.5" text-anchor="end" font-family="-apple-system,BlinkMacSystemFont,'Segoe UI',Helvetica,Arial,sans-serif" font-size="11" fill="#8b949e">60k</text>
<text x="46.0" y="252" text-anchor="middle" font-family="-apple-system,BlinkMacSystemFont,'Segoe UI',Helvetica,Arial,sans-serif" font-size="11" fill="#8b949e">11.07</text>
<text x="195.0" y="252" text-anchor="middle" font-family="-apple-system,BlinkMacSystemFont,'Segoe UI',Helvetica,Arial,sans-serif" font-size="11" fill="#8b949e">17.07</text>
<text x="344.0" y="252" text-anchor="middle" font-family="-apple-system,BlinkMacSystemFont,'Segoe UI',Helvetica,Arial,sans-serif" font-size="11" fill="#8b949e">23.07</text>
<text x="493.0" y="252" text-anchor="middle" font-family="-apple-system,BlinkMacSystemFont,'Segoe UI',Helvetica,Arial,sans-serif" font-size="11" fill="#8b949e">29.07</text>
<text x="642.0" y="252" text-anchor="middle" font-family="-apple-system,BlinkMacSystemFont,'Segoe UI',Helvetica,Arial,sans-serif" font-size="11" fill="#8b949e">04.08</text>
<polyline points="46.0,230.0 67.2,226.4 116.5,220.0 165.7,205.1 190.4,194.3 211.4,194.3 226.3,187.8 236.3,182.0 237.0,181.9 237.1,181.9 241.6,180.2 247.4,177.8 256.2,176.2 261.8,175.3 266.9,173.7 272.5,171.7 280.5,170.3 285.6,169.5 291.4,167.9 297.0,166.1 305.2,164.6 310.2,164.0 316.1,162.5 321.6,160.9 329.8,159.6 334.9,158.8 340.8,157.0 346.2,155.2 354.4,153.8 359.5,152.9 365.1,151.2 370.8,149.2 378.9,147.5 383.8,146.4 389.6,144.3 395.3,142.2 403.9,140.4 408.7,139.2 414.2,137.1 419.9,134.6 428.6,132.9 434.9,131.9 440.1,130.2 444.9,128.6 452.8,127.1 458.4,126.4 464.1,124.8 469.5,123.2 477.5,121.8 483.1,120.9 488.6,119.3 494.0,117.8 502.0,116.3 507.6,115.5 513.3,114.0 518.7,112.6 526.9,111.1 532.5,110.2 538.0,108.6 543.4,107.0 551.6,105.4 556.4,104.4 561.9,102.6 567.7,100.6 576.3,98.7 581.1,97.6 586.6,95.7 592.3,93.4 600.9,91.8 607.2,90.9 612.6,89.2 617.4,88.1 625.3,86.8 630.9,86.2 636.6,84.8 642.0,83.5" fill="none" stroke="#d97706" stroke-width="2" stroke-linejoin="round" stroke-linecap="round"/>
<circle cx="642.0" cy="83.5" r="3.5" fill="#d97706"/>
<text x="651.0" y="87.5" font-family="-apple-system,BlinkMacSystemFont,'Segoe UI',Helvetica,Arial,sans-serif" font-size="12" font-weight="600" fill="#e6edf3">41 071</text>
</svg>