<svg xmlns="http://www.w3.org/2000/svg" viewBox="0 0 720 260" width="720" height="260" role="img" aria-label="Subscribers over time">
<line x1="46" y1="230.0" x2="642" y2="230.0" stroke="#d0d7de" stroke-width="1" opacity="0.9"/>
<text x="38" y="233.5" text-anchor="end" font-family="-apple-system,BlinkMacSystemFont,'Segoe UI',Helvetica,Arial,sans-serif" font-size="11" fill="#57606a">0</text>
<line x1="46" y1="158.7" x2="642" y2="158.7" stroke="#d0d7de" stroke-width="1" opacity="0.5"/>
<text x="38" y="162.2" text-anchor="end" font-family="-apple-system,BlinkMacSystemFont,'Segoe UI',Helvetica,Arial,sans-serif" font-size="11" fill="#57606a">10k</text>
<line x1="46" y1="87.3" x2="642" y2="87.3" stroke="#d0d7de" stroke-width="1" opacity="0.5"/>
<text x="38" y="90.8" text-anchor="end" font-family="-apple-system,BlinkMacSystemFont,'Segoe UI',Helvetica,Arial,sans-serif" font-size="11" fill="#57606a">20k</text>
<line x1="46" y1="16.0" x2="642" y2="16.0" stroke="#d0d7de" stroke-width="1" opacity="0.5"/>
<text x="38" y="19.5" text-anchor="end" font-family="-apple-system,BlinkMacSystemFont,'Segoe UI',Helvetica,Arial,sans-serif" font-size="11" fill="#57606a">30k</text>
<text x="46.0" y="252" text-anchor="middle" font-family="-apple-system,BlinkMacSystemFont,'Segoe UI',Helvetica,Arial,sans-serif" font-size="11" fill="#57606a">11.07</text>
<text x="195.0" y="252" text-anchor="middle" font-family="-apple-system,BlinkMacSystemFont,'Segoe UI',Helvetica,Arial,sans-serif" font-size="11" fill="#57606a">14.07</text>
<text x="344.0" y="252" text-anchor="middle" font-family="-apple-system,BlinkMacSystemFont,'Segoe UI',Helvetica,Arial,sans-serif" font-size="11" fill="#57606a">17.07</text>
<text x="493.0" y="252" text-anchor="middle" font-family="-apple-system,BlinkMacSystemFont,'Segoe UI',Helvetica,Arial,sans-serif" font-size="11" fill="#57606a">21.07</text>
<text x="642.0" y="252" text-anchor="middle" font-family="-apple-system,BlinkMacSystemFont,'Segoe UI',Helvetica,Arial,sans-serif" font-size="11" fill="#57606a">24.07</text>
<polyline points="46.0,230.0 87.0,222.8 182.2,210.0 277.4,180.2 325.0,158.7 365.7,158.6 394.4,145.7 413.8,134.1 415.1,133.9 415.4,133.8 424.1,130.4 435.3,125.6 452.2,122.5 463.1,120.6 473.0,117.4 483.7,113.5 499.3,110.5 509.1,109.0 520.3,105.8 531.1,102.2 546.9,99.3 556.7,98.0 567.9,95.0 578.7,91.8 594.4,89.2 604.3,87.7 615.8,84.0 626.2,80.4 642.0,77.5" fill="none" stroke="#d97706" stroke-width="2" stroke-linejoin="round" stroke-linecap="round"/>
<circle cx="642.0" cy="77.5" r="3.5" fill="#d97706"/>
<text x="651.0" y="81.5" font-family="-apple-system,BlinkMacSystemFont,'Segoe UI',Helvetica,Arial,sans-serif" font-size="12" font-weight="600" fill="#1f2328">21 376</text>
</svg>