<svg xmlns="http://www.w3.org/2000/svg" viewBox="0 0 720 260" width="720" height="260" role="img" aria-label="Subscribers over time">
<line x1="46" y1="230.0" x2="642" y2="230.0" stroke="#d0d7de" stroke-width="1" opacity="0.9"/>
<text x="38" y="233.5" text-anchor="end" font-family="-apple-system,BlinkMacSystemFont,'Segoe UI',Helvetica,Arial,sans-serif" font-size="11" fill="#57606a">0</text>
<line x1="46" y1="176.5" x2="642" y2="176.5" stroke="#d0d7de" stroke-width="1" opacity="0.5"/>
<text x="38" y="180.0" text-anchor="end" font-family="-apple-system,BlinkMacSystemFont,'Segoe UI',Helvetica,Arial,sans-serif" font-size="11" fill="#57606a">10k</text>
<line x1="46" y1="123.0" x2="642" y2="123.0" stroke="#d0d7de" stroke-width="1" opacity="0.5"/>
<text x="38" y="126.5" text-anchor="end" font-family="-apple-system,BlinkMacSystemFont,'Segoe UI',Helvetica,Arial,sans-serif" font-size="11" fill="#57606a">20k</text>
<line x1="46" y1="69.5" x2="642" y2="69.5" stroke="#d0d7de" stroke-width="1" opacity="0.5"/>
<text x="38" y="73.0" text-anchor="end" font-family="-apple-system,BlinkMacSystemFont,'Segoe UI',Helvetica,Arial,sans-serif" font-size="11" fill="#57606a">30k</text>
<line x1="46" y1="16.0" x2="642" y2="16.0" stroke="#d0d7de" stroke-width="1" opacity="0.5"/>
<text x="38" y="19.5" text-anchor="end" font-family="-apple-system,BlinkMacSystemFont,'Segoe UI',Helvetica,Arial,sans-serif" font-size="11" fill="#57606a">40k</text>
<text x="46.0" y="252" text-anchor="middle" font-family="-apple-system,BlinkMacSystemFont,'Segoe UI',Helvetica,Arial,sans-serif" font-size="11" fill="#57606a">11.07</text>
<text x="195.0" y="252" text-anchor="middle" font-family="-apple-system,BlinkMacSystemFont,'Segoe UI',Helvetica,Arial,sans-serif" font-size="11" fill="#57606a">15.07</text>
<text x="344.0" y="252" text-anchor="middle" font-family="-apple-system,BlinkMacSystemFont,'Segoe UI',Helvetica,Arial,sans-serif" font-size="11" fill="#57606a">20.07</text>
<text x="493.0" y="252" text-anchor="middle" font-family="-apple-system,BlinkMacSystemFont,'Segoe UI',Helvetica,Arial,sans-serif" font-size="11" fill="#57606a">24.07</text>
<text x="642.0" y="252" text-anchor="middle" font-family="-apple-system,BlinkMacSystemFont,'Segoe UI',Helvetica,Arial,sans-serif" font-size="11" fill="#57606a">28.07</text>
<polyline points="46.0,230.0 76.2,224.6 146.4,215.0 216.7,192.7 251.8,176.5 281.8,176.4 303.0,166.8 317.3,158.1 318.2,157.9 318.4,157.8 324.9,155.3 333.1,151.7 345.6,149.3 353.6,148.0 360.9,145.5 368.8,142.6 380.3,140.4 387.6,139.2 395.8,136.8 403.8,134.1 415.4,131.9 422.7,131.0 430.9,128.7 438.9,126.4 450.5,124.4 457.8,123.3 466.3,120.5 473.9,117.8 485.6,115.6 492.8,114.4 500.9,111.8 509.0,108.8 520.6,106.3 527.5,104.6 535.8,101.5 543.9,98.2 556.1,95.6 563.0,93.8 570.8,90.6 579.0,86.9 591.4,84.3 600.3,82.9 607.7,80.3 614.6,78.0 625.9,75.7 633.9,74.6 642.0,72.3" fill="none" stroke="#d97706" stroke-width="2" stroke-linejoin="round" stroke-linecap="round"/>
<circle cx="642.0" cy="72.3" r="3.5" fill="#d97706"/>
<text x="651.0" y="76.3" font-family="-apple-system,BlinkMacSystemFont,'Segoe UI',Helvetica,Arial,sans-serif" font-size="12" font-weight="600" fill="#1f2328">29 483</text>
</svg>